<svg xmlns="http://www.w3.org/2000/svg" viewBox="0 0 48 48">
  <path fill="#EA4335" d="M24 9.5c3.19 0 6.04 1.1 8.29 3.25l6.2-6.2C34.85 2.5 29.73 0 24 0 14.62 0 6.63 5.45 3 13.31l7.24 5.63C12.07 13.11 17.51 9.5 24 9.5z"/>
  <path fill="#4285F4" d="M46.5 24.5c0-1.62-.14-3.18-.41-4.68H24v8.86h12.7c-.55 2.76-2.22 5.09-4.76 6.66l7.44 5.78C43.62 36.36 46.5 30.91 46.5 24.5z"/>
  <path fill="#FBBC05" d="M10.24 28.94a14.53 14.53 0 0 1 0-9.88l-7.24-5.63A24 24 0 0 0 0 24c0 3.85.92 7.48 2.56 10.58l7.68-5.64z"/>
  <path fill="#34A853" d="M24 48c6.48 0 11.93-2.14 15.9-5.82l-7.44-5.78c-2.06 1.38-4.72 2.2-8.46 2.2-6.49 0-11.93-3.6-14.76-8.69l-7.68 5.64C6.63 42.55 14.62 48 24 48z"/>
  <path fill="none" d="M0 0h48v48H0z"/>
</svg>

